<?xml version="1.0" encoding="UTF-8" standalone="no"?>
<svg
   width="1034.8252"
   height="687.94745"
   viewBox="0 0 1034.8252 687.94745"
   fill="none"
   version="1.1"
   id="svg9"
   sodipodi:docname="linessvg.svg"
   inkscape:version="1.3.2 (091e20ef0f, 2023-11-25, custom)"
   xmlns:inkscape="http://www.inkscape.org/namespaces/inkscape"
   xmlns:sodipodi="http://sodipodi.sourceforge.net/DTD/sodipodi-0.dtd"
   xmlns="http://www.w3.org/2000/svg"
   xmlns:svg="http://www.w3.org/2000/svg">
  <defs
     id="defs9" />
  <sodipodi:namedview
     id="namedview9"
     pagecolor="#ffffff"
     bordercolor="#000000"
     borderopacity="0.25"
     inkscape:showpageshadow="2"
     inkscape:pageopacity="0.0"
     inkscape:pagecheckerboard="0"
     inkscape:deskcolor="#d1d1d1"
     inkscape:zoom="0.48354232"
     inkscape:cx="-87.893031"
     inkscape:cy="552.17504"
     inkscape:window-width="2536"
     inkscape:window-height="1374"
     inkscape:window-x="0"
     inkscape:window-y="0"
     inkscape:window-maximized="1"
     inkscape:current-layer="svg9" />
  <path
     d="m 827.59352,167.99877 c -35.12,32.72 -89.013,34.275 -156.473,10.294 -184.35,-65.535 -381.414,151.005 -342.68,365.682 16.786,93.03 111.71,124.86 163.043,143.03"
     stroke="#ffffff"
     stroke-width="2"
     id="path1" />
  <path
     d="m 859.06352,171.70077 c -35.12,32.72 -89.016,34.275 -156.475,10.294 -184.35,-65.535 -381.415,151.005 -342.68,365.68 10.794,59.83 78.742,87.83 115.575,99.83"
     stroke="#ffffff"
     stroke-width="2"
     id="path2" />
  <path
     d="m 896.70352,169.56377 c -35.12,32.72 -89.01,34.275 -156.47,10.294 -184.35,-65.535 -381.414,151.004 -342.68,365.677 9.376,51.97 51.62,65.47 77.43,80.97"
     stroke="#ffffff"
     stroke-width="2"
     id="path3" />
  <path
     d="m 943.13352,159.24577 c -35.12,32.721 -89.02,34.275 -156.475,10.294 -184.35,-65.535 -381.414,151.005 -342.68,365.682 4.291,23.783 10.003,37.443 15.005,47.783"
     stroke="#ffffff"
     stroke-width="2"
     id="path4" />
  <path
     d="m 987.95352,136.94377 c -35.12,32.721 -89.01,34.276 -156.47,10.294 -184.349,-65.534001 -381.413,151.005 -342.679,365.683"
     stroke="#ffffff"
     stroke-width="2"
     id="path5" />
  <path
     d="m 1034.1435,102.89777 c -35.11998,32.72 -89.00998,34.275 -156.46998,10.294 -184.354,-65.535001 -381.419,151.004 -342.684,365.682"
     stroke="#ffffff"
     stroke-width="2"
     id="path6" />
  <path
     d="m 479.98352,216.50277 c -88.8,-166.400001 -117,-191.500001 -302.5,-167.500001 -21.67,3.901 -37.166,6.81 -49.762,8.841 -37.782002,6.092 -79.777002,9.224 -98.582002,42.555001 -52.004,92.175 -40.966,303.604 110.844002,303.604 203,0 277.834,27 313.5,42.5"
     stroke="#ffffff"
     stroke-width="2"
     id="path7" />
  <path
     d="m 486.95352,197.27877 c -88.8,-166.400001 -117,-191.5000011 -302.5,-167.500001 -21.67,3.9 -37.166,6.81 -49.762,8.841 -37.782002,6.092 -79.776002,9.224 -98.582002,42.555 -52.004,92.174001 -40.9650007,303.604001 110.844002,303.604001 49.224,5.779 110.53,2.408 135.03,0 81,-7.962 142.167,25.391 185,43.224"
     stroke="#ffffff"
     stroke-width="2"
     id="path8" />
  <path
     d="m 502.95352,176.27877 c -88.8,-166.4000011 -117,-191.500001 -302.5,-167.5000011 -21.67,3.9000001 -37.166,6.8100001 -49.762,8.8410001 -37.782,6.092 -79.776002,9.224 -98.582002,42.555 -52.00400076,92.174001 -40.965,303.604001 110.844002,303.604001 170.53,-15.776 242.364,13.891 299.03,28.724"
     stroke="#ffffff"
     stroke-width="2"
     id="path9" />
</svg>
