<svg width="658" height="733" viewBox="0 0 658 733" fill="none" xmlns="http://www.w3.org/2000/svg">
<path d="M173.068 152.716C197.285 194.16 245.773 212.723 312.504 211.963C494.864 209.884 623.08 472.92 537.991 659.307" stroke="#FF0000" stroke-width="2"/>
<path d="M143.683 146.144C167.899 187.587 216.387 206.151 283.119 205.39C465.479 203.312 593.695 466.347 508.606 652.734" stroke="#FF0000" stroke-width="2"/>
<path d="M110.058 132.204C134.274 173.647 182.762 192.211 249.493 191.45C431.854 189.372 560.07 452.407 474.981 638.794" stroke="#FF0000" stroke-width="2"/>
<path d="M70.3779 107.903C94.5942 149.347 143.082 167.91 209.814 167.15C392.174 165.071 520.39 428.107 435.301 614.494" stroke="#FF0000" stroke-width="2"/>
<path d="M34.9372 73.0182C59.1535 114.462 107.642 133.025 174.373 132.265C356.733 130.186 484.949 393.222 399.86 579.608" stroke="#FF0000" stroke-width="2"/>
<path d="M0.999937 26.8312C25.2162 68.2748 73.7043 86.8381 140.436 86.0775C322.796 83.9991 451.012 347.035 365.923 533.421" stroke="#FF0000" stroke-width="2"/>
</svg>
