<svg width="864" height="572" viewBox="0 0 864 572" fill="none" xmlns="http://www.w3.org/2000/svg">
<path d="M255.749 417.778C300.206 399.679 325.453 354.311 334.157 288.145C357.942 107.331 636.493 17.6843 808.941 128.328" stroke="#FF0000" stroke-width="2"/>
<path d="M245.078 445.935C289.535 427.836 314.782 382.468 323.486 316.302C347.271 135.488 625.822 45.8415 798.27 156.485" stroke="#FF0000" stroke-width="2"/>
<path d="M226.513 477.245C270.97 459.147 296.218 413.779 304.922 347.613C328.707 166.798 607.258 77.1521 779.705 187.796" stroke="#FF0000" stroke-width="2"/>
<path d="M196.835 513.081C241.292 494.982 266.539 449.614 275.243 383.449C299.029 202.634 577.58 112.988 750.027 223.632" stroke="#FF0000" stroke-width="2"/>
<path d="M157.279 543.221C201.736 525.122 226.984 479.754 235.688 413.588C259.473 232.774 538.024 143.128 710.471 253.771" stroke="#FF0000" stroke-width="2"/>
<path d="M106.749 570.27C151.206 552.171 176.454 506.803 185.157 440.637C208.943 259.823 487.494 170.176 659.941 280.82" stroke="#FF0000" stroke-width="2"/>
</svg>
