<svg width="286" height="818" viewBox="0 0 286 818" fill="none" xmlns="http://www.w3.org/2000/svg">
<path d="M86.0554 195.5C86.0554 243.5 118.555 283.99 176.555 317C335.055 407.207 313.055 699 145.555 817" stroke="#FF0000" stroke-width="2"/>
<path d="M64 175C64 223 96.4997 263.49 154.5 296.5C313 386.707 291 678.5 123.5 796.5" stroke="#FF0000" stroke-width="2"/>
<path d="M42 146C42 194 74.4997 234.49 132.5 267.5C291 357.707 269 649.5 101.5 767.5" stroke="#FF0000" stroke-width="2"/>
<path d="M20 105C20 153 52.4997 193.49 110.5 226.5C269 316.707 247 608.5 79.4999 726.5" stroke="#FF0000" stroke-width="2"/>
<path d="M6.99995 57C6.99995 105 39.4997 145.49 97.4999 178.5C256 268.707 234 560.5 66.4999 678.5" stroke="#FF0000" stroke-width="2"/>
<path d="M0.999954 0C0.999954 48 33.4997 88.4902 91.4999 121.5C250 211.707 228 503.5 60.4999 621.5" stroke="#FF0000" stroke-width="2"/>
</svg>
