<svg width="313" height="818" viewBox="0 0 313 818" fill="none" xmlns="http://www.w3.org/2000/svg">
<path d="M217.944 195.5C217.944 243.5 182.344 283.99 118.813 317C-54.8031 407.207 -30.7048 699 152.769 817" stroke="#FF0000" stroke-width="2"/>
<path d="M242.103 175C242.103 223 206.504 263.49 142.972 296.5C-30.6439 386.707 -6.5456 678.5 176.928 796.5" stroke="#FF0000" stroke-width="2"/>
<path d="M266.201 146C266.201 194 230.602 234.49 167.07 267.5C-6.54573 357.707 17.5525 649.5 201.026 767.5" stroke="#FF0000" stroke-width="2"/>
<path d="M290.299 105C290.299 153 254.7 193.49 191.168 226.5C17.5524 316.707 41.6507 608.5 225.125 726.5" stroke="#FF0000" stroke-width="2"/>
<path d="M304.539 57C304.539 105 268.94 145.49 205.408 178.5C31.7922 268.707 55.8904 560.5 239.364 678.5" stroke="#FF0000" stroke-width="2"/>
<path d="M311.111 0C311.111 48 275.512 88.4902 211.98 121.5C38.3644 211.707 62.4627 503.5 245.937 621.5" stroke="#FF0000" stroke-width="2"/>
</svg>
