<svg width="294" height="821" viewBox="0 0 294 821" fill="none" xmlns="http://www.w3.org/2000/svg">
<path d="M88.3924 197.86C88.9676 245.856 121.95 285.954 180.342 318.266C339.912 406.567 321.41 698.603 155.337 818.602" stroke="white" stroke-width="2"/>
<path d="M66.0928 177.626C66.6681 225.622 99.6507 265.72 158.042 298.032C317.612 386.333 299.111 678.369 133.037 798.368" stroke="white" stroke-width="2"/>
<path d="M43.7468 148.891C44.3221 196.888 77.3048 236.986 135.696 269.298C295.266 357.599 276.765 649.635 110.691 769.634" stroke="white" stroke-width="2"/>
<path d="M21.2571 108.158C21.8324 156.154 54.815 196.252 113.207 228.564C272.776 316.866 254.275 608.901 88.2015 728.9" stroke="white" stroke-width="2"/>
<path d="M7.68264 60.317C8.25791 108.314 41.2406 148.411 99.6323 180.724C259.202 269.025 240.7 561.06 74.627 681.059" stroke="white" stroke-width="2"/>
<path d="M1.00002 3.39322C1.5753 51.3898 34.5579 91.4876 92.9497 123.8C252.519 212.101 234.018 504.136 67.9444 624.135" stroke="white" stroke-width="2"/>
</svg>
